<svg width="658" height="658" viewBox="0 0 658 658" fill="none" xmlns="http://www.w3.org/2000/svg">
<path d="M648.046 292.753L185.092 24.3643L122.512 132.309L585.467 400.699L648.046 292.753Z" fill="#00AEEF"/>
<path d="M652.166 440.631L189.211 172.242L126.632 280.187L589.587 548.577L652.166 440.631Z" fill="#00AEEF"/>
<path d="M531.607 517.247L68.6526 248.858L6.0734 356.803L469.028 625.192L531.607 517.247Z" fill="#D83018"/>
<g filter="url(#filter0_d_126_5)">
<path d="M164.668 324.363V398.483H155.778V241.354H164.668V315.474H245.121V241.354H254.011V398.483H245.121V324.363H164.668ZM281.57 333.364H366.246C364.172 326.623 360.653 320.77 355.689 315.807C346.947 307.065 336.428 302.694 324.13 302.694C311.832 302.694 301.313 307.065 292.571 315.807C287.385 321.067 283.718 326.919 281.57 333.364ZM279.903 342.365C279.681 343.921 279.57 345.588 279.57 347.366C279.57 359.664 283.903 370.146 292.571 378.814C301.313 387.481 311.832 391.815 324.13 391.815C336.428 391.815 346.947 387.444 355.689 378.703C357.171 377.221 358.578 375.665 359.912 374.036L369.357 377.369C368.246 379.221 365.913 381.888 362.357 385.37C351.837 395.964 339.095 401.261 324.13 401.261C309.314 401.261 296.609 396.001 286.015 385.481C275.495 374.888 270.235 362.182 270.235 347.366C270.235 332.401 275.495 319.659 286.015 309.14C296.609 298.62 309.314 293.36 324.13 293.36C339.095 293.36 351.837 298.62 362.357 309.14C371.617 318.474 376.247 329.549 376.247 342.365H279.903ZM411.918 347.477L383.581 302.028H393.916L417.029 339.254L440.143 302.028H450.477L422.141 347.477L453.811 398.483H443.588L417.029 355.811L390.471 398.483H380.247L411.918 347.477ZM568.602 398.483H559.712V378.814C558.008 381.11 556.156 383.296 554.155 385.37C543.636 395.964 530.894 401.261 515.929 401.261C501.113 401.261 488.408 396.001 477.814 385.481C467.294 374.888 462.034 362.182 462.034 347.366C462.034 332.401 467.294 319.659 477.814 309.14C488.408 298.62 501.113 293.36 515.929 293.36C530.894 293.36 543.636 298.62 554.155 309.14C556.156 311.214 558.008 313.399 559.712 315.696V302.028H568.602V398.483ZM559.712 356.034V338.587C558.082 329.92 554.007 322.326 547.488 315.807C538.746 307.065 528.227 302.694 515.929 302.694C503.631 302.694 493.112 307.065 484.37 315.807C475.702 324.549 471.369 335.068 471.369 347.366C471.369 359.664 475.702 370.146 484.37 378.814C493.112 387.481 503.631 391.815 515.929 391.815C528.227 391.815 538.746 387.444 547.488 378.703C554.007 372.183 558.082 364.627 559.712 356.034Z" fill="white"/>
</g>
<defs>
<filter id="filter0_d_126_5" x="151.778" y="241.354" width="420.823" height="169.907" filterUnits="userSpaceOnUse" color-interpolation-filters="sRGB">
<feFlood flood-opacity="0" result="BackgroundImageFix"/>
<feColorMatrix in="SourceAlpha" type="matrix" values="0 0 0 0 0 0 0 0 0 0 0 0 0 0 0 0 0 0 127 0" result="hardAlpha"/>
<feOffset dy="6"/>
<feGaussianBlur stdDeviation="2"/>
<feComposite in2="hardAlpha" operator="out"/>
<feColorMatrix type="matrix" values="0 0 0 0 0 0 0 0 0 0 0 0 0 0 0 0 0 0 0.3 0"/>
<feBlend mode="normal" in2="BackgroundImageFix" result="effect1_dropShadow_126_5"/>
<feBlend mode="normal" in="SourceGraphic" in2="effect1_dropShadow_126_5" result="shape"/>
</filter>
</defs>
</svg>
