<svg width="65" height="65" viewBox="0 0 65 65" fill="none" xmlns="http://www.w3.org/2000/svg">
<rect x="10" y="17" width="43" height="34" fill="white"/>
<path d="M32.4998 0.416504C14.7898 0.416504 0.416504 14.7898 0.416504 32.4998C0.416504 50.2098 14.7898 64.5832 32.4998 64.5832C50.2098 64.5832 64.5832 50.2098 64.5832 32.4998C64.5832 14.7898 50.2098 0.416504 32.4998 0.416504ZM47.3865 22.2332C46.9053 27.3023 44.8198 39.6223 43.7611 45.3011C43.3119 47.7073 42.4136 48.5094 41.5794 48.6057C39.7186 48.7661 38.3069 47.3865 36.5103 46.1994C33.6869 44.3386 32.0828 43.1836 29.3557 41.3869C26.1794 39.3015 28.2328 38.1465 30.0615 36.2857C30.5428 35.8044 38.7561 28.329 38.9165 27.6553C38.9388 27.5532 38.9358 27.4473 38.9079 27.3466C38.8799 27.246 38.8278 27.1537 38.7561 27.0778C38.5636 26.9173 38.3069 26.9815 38.0823 27.0136C37.7936 27.0778 33.3019 30.0615 24.5432 35.9648C23.2598 36.8311 22.1048 37.2803 21.0782 37.2482C19.9232 37.2161 17.7415 36.6065 16.1053 36.0611C14.084 35.4194 12.5119 35.0665 12.6403 33.9436C12.7044 33.3661 13.5065 32.7886 15.0144 32.179C24.3828 28.1044 30.6069 25.4094 33.719 24.1261C42.6382 20.4044 44.4669 19.7628 45.6861 19.7628C45.9428 19.7628 46.5523 19.8269 46.9373 20.1478C47.2582 20.4044 47.3544 20.7573 47.3865 21.014C47.3544 21.2065 47.4186 21.784 47.3865 22.2332V22.2332Z" fill="#1C93CF"/>
</svg>
