<svg width="63" height="62" viewBox="0 0 63 62" fill="none" xmlns="http://www.w3.org/2000/svg">
<path d="M56.5 31C56.5 44.4761 54.0721 55.9439 42 60.2157C38.735 61.371 35.2035 62 31.5 62C27.7965 62 24.265 61.371 21 60.2157C8.92785 55.9439 5.5 44.4761 5.5 31C5.5 13.8792 14.103 5.5 31.5 5.5C48.897 5.5 56.5 13.8792 56.5 31Z" fill="white"/>
<path fill-rule="evenodd" clip-rule="evenodd" d="M31.5002 0.216797C14.346 0.216797 0.450195 14.1126 0.450195 31.2668C0.450195 44.9901 9.34353 56.6243 21.6869 60.726C23.2394 61.0135 23.8144 60.0551 23.8144 59.231C23.8144 58.4835 23.7952 56.0493 23.776 53.4426C15.1319 55.321 13.311 49.7818 13.311 49.7818C11.8927 46.1976 9.86103 45.2393 9.86103 45.2393C7.04353 43.3035 10.0719 43.361 10.0719 43.361C13.196 43.5718 14.8252 46.5618 14.8252 46.5618C17.5852 51.3151 22.0894 49.9351 23.8527 49.1493C24.1402 47.1368 24.9452 45.776 25.8269 44.9901C18.9269 44.2043 11.6819 41.5401 11.6819 29.6376C11.6819 26.2451 12.8894 23.4851 14.8827 21.3001C14.5569 20.5143 13.5027 17.3518 15.1894 13.0776C15.1894 13.0776 17.796 12.2343 23.7377 16.2593C26.2102 15.5693 28.8744 15.2243 31.5002 15.2051C34.1452 15.2243 36.7902 15.5693 39.2819 16.2593C45.2044 12.2343 47.811 13.0776 47.811 13.0776C49.4977 17.3518 48.4435 20.5143 48.1177 21.3001C50.111 23.466 51.3185 26.2451 51.3185 29.6376C51.3185 41.5593 44.0544 44.1851 37.1352 44.9518C38.2469 45.9101 39.2435 47.8076 39.2435 50.7018C39.2435 54.861 39.2052 58.196 39.2052 59.231C39.2052 60.0551 39.761 61.0326 41.3327 60.726C53.6569 56.6243 62.5502 44.9901 62.5502 31.2668C62.5502 14.1126 48.6544 0.216797 31.5002 0.216797V0.216797Z" fill="black"/>
<path d="M13.2187 44.7985C13.142 44.9519 12.912 44.9902 12.682 44.8944C12.452 44.7985 12.337 44.5877 12.3945 44.4344C12.452 44.281 12.7012 44.2235 12.9312 44.3385C13.1612 44.4344 13.2954 44.6452 13.2187 44.7985ZM14.4645 46.1977C14.3112 46.3319 14.0237 46.2744 13.832 46.0635C13.6212 45.8527 13.5829 45.5652 13.7362 45.4119C13.8895 45.2777 14.177 45.3352 14.3687 45.546C14.5795 45.776 14.6179 46.0635 14.4645 46.1977ZM15.6912 47.9802C15.4995 48.1144 15.1929 47.9802 15.0012 47.7119C14.8095 47.4435 14.8095 47.0985 15.0012 46.9644C15.1929 46.8302 15.4995 46.9452 15.6912 47.2327C15.8829 47.5202 15.8829 47.846 15.6912 47.9802ZM17.3779 49.7244C17.2054 49.916 16.8412 49.8585 16.5729 49.6094C16.3045 49.3602 16.2279 48.996 16.4004 48.8235C16.5729 48.6319 16.937 48.6894 17.2054 48.9385C17.4737 49.1685 17.5504 49.5327 17.3779 49.7244ZM19.6779 50.721C19.6012 50.9702 19.2562 51.066 18.9112 50.9702C18.5662 50.8552 18.3362 50.5869 18.3937 50.3377C18.4704 50.0885 18.8154 49.9735 19.1795 50.0885C19.5245 50.1844 19.7545 50.4719 19.6779 50.721V50.721ZM22.227 50.9127C22.227 51.1619 21.9395 51.3727 21.5754 51.3919C21.2112 51.3919 20.9045 51.2002 20.9045 50.9319C20.9045 50.6827 21.192 50.4719 21.5754 50.4527C21.9204 50.4527 22.227 50.6444 22.227 50.9127ZM24.5845 50.5102C24.6229 50.7594 24.3737 51.0085 24.0095 51.0852C23.6454 51.1427 23.3195 50.9894 23.262 50.7402C23.2237 50.491 23.4729 50.2227 23.837 50.1652C24.2204 50.1077 24.5462 50.2419 24.5845 50.5102Z" fill="black"/>
</svg>
