<svg width="63" height="61" viewBox="0 0 63 61" fill="none" xmlns="http://www.w3.org/2000/svg">
<path fill-rule="evenodd" clip-rule="evenodd" d="M31.5002 0.216797C14.346 0.216797 0.450195 14.1126 0.450195 31.2668C0.450195 44.9901 9.34353 56.6243 21.6869 60.726C23.2394 61.0135 23.8144 60.0551 23.8144 59.231C23.8144 58.4835 23.7952 56.0493 23.776 53.4426C15.1319 55.321 13.311 49.7818 13.311 49.7818C11.8927 46.1976 9.86103 45.2393 9.86103 45.2393C7.04353 43.3035 10.0719 43.361 10.0719 43.361C13.196 43.5718 14.8252 46.5618 14.8252 46.5618C17.5852 51.3151 22.0894 49.9351 23.8527 49.1493C24.1402 47.1368 24.9452 45.776 25.8269 44.9901C18.9269 44.2043 11.6819 41.5401 11.6819 29.6376C11.6819 26.2451 12.8894 23.4851 14.8827 21.3001C14.5569 20.5143 13.5027 17.3518 15.1894 13.0776C15.1894 13.0776 17.796 12.2343 23.7377 16.2593C26.2102 15.5693 28.8744 15.2243 31.5002 15.2051C34.1452 15.2243 36.7902 15.5693 39.2819 16.2593C45.2044 12.2343 47.811 13.0776 47.811 13.0776C49.4977 17.3518 48.4435 20.5143 48.1177 21.3001C50.111 23.466 51.3185 26.2451 51.3185 29.6376C51.3185 41.5593 44.0544 44.1851 37.1352 44.9518C38.2469 45.9101 39.2435 47.8076 39.2435 50.7018C39.2435 54.861 39.2052 58.196 39.2052 59.231C39.2052 60.0551 39.761 61.0326 41.3327 60.726C53.6569 56.6243 62.5502 44.9901 62.5502 31.2668C62.5502 14.1126 48.6544 0.216797 31.5002 0.216797V0.216797Z" fill="black"/>
</svg>
