<svg width="52" height="44" viewBox="0 0 52 44" fill="none" xmlns="http://www.w3.org/2000/svg">
<path d="M26 0C17.628 0 6.76172 2.09747 6.76172 2.09747L6.73438 2.12872C2.92133 2.73849 0 6.01472 0 9.99911V21.998V22.002V33.997V34.0009C0.00372091 35.9038 0.68574 37.743 1.9236 39.1884C3.16145 40.6337 4.87406 41.5905 6.75391 41.8869L6.76172 41.8986C6.76172 41.8986 17.628 44 26 44C34.372 44 45.2383 41.8986 45.2383 41.8986L45.2422 41.8947C47.1241 41.599 48.8386 40.6414 50.0775 39.1944C51.3163 37.7473 51.998 35.9057 52 34.0009V33.997V22.002V21.998V9.99911C51.9972 8.09554 51.3156 6.25535 50.0777 4.80919C48.8397 3.36303 47.1266 2.40569 45.2461 2.10919L45.2383 2.09747C45.2383 2.09747 34.372 0 26 0ZM20 12.7957L36 21.998L20 31.2004V12.7957Z" fill="#E6461A"/>
</svg>
