<svg width="172" height="172" viewBox="0 0 172 172" fill="none" xmlns="http://www.w3.org/2000/svg">
<path d="M0 85.8C0 38.4 38.4 0 85.8 0C133.2 0 171.6 38.4 171.6 85.8C171.6 133.2 133.2 171.6 85.8 171.6C38.4 171.5 0 133.1 0 85.8Z" fill="#5865F2"/>
<path d="M124.4 50.8999C117.1 47.5999 109.5 45.1999 101.6 43.8999C100.6 45.6999 99.4999 47.9999 98.6999 49.8999C90.2999 48.5999 81.7999 48.5999 73.3999 49.8999C72.4999 47.7999 71.4999 45.7999 70.3999 43.8999C62.4999 45.1999 54.7999 47.5999 47.5999 50.9999C33.1999 72.4999 29.2999 93.3999 31.1999 114.1C39.6999 120.4 49.0999 125.2 59.1999 128.2C61.4999 125.1 63.4999 121.9 65.1999 118.5C61.8999 117.3 58.7999 115.8 55.7999 114C56.5999 113.4 57.2999 112.8 58.0999 112.2C75.7999 120.6 96.3999 120.6 114.1 112.2C114.9 112.8 115.6 113.4 116.4 114C113.4 115.8 110.2 117.3 106.9 118.5C108.6 121.9 110.6 125.1 112.9 128.2C123 125.1 132.5 120.4 140.9 114.1C143.1 90.0999 136.9 69.2999 124.4 50.8999ZM67.5999 101.3C62.0999 101.3 57.6999 96.2999 57.6999 90.1999C57.6999 84.0999 62.0999 78.9999 67.5999 78.9999C73.1999 78.9999 77.5999 83.9999 77.5999 90.1999C77.4999 96.2999 73.1999 101.3 67.5999 101.3ZM104.4 101.3C98.8999 101.3 94.4999 96.2999 94.4999 90.1999C94.4999 84.0999 98.8999 78.9999 104.4 78.9999C110 78.9999 114.4 83.9999 114.3 90.1999C114.2 96.3999 109.9 101.3 104.4 101.3Z" fill="white"/>
</svg>
