<svg width="20" height="20" viewBox="0 0 20 20" fill="none" xmlns="http://www.w3.org/2000/svg">
<rect x="4" y="3" width="12" height="13" fill="#F1F1F1"/>
<path d="M10 0C4.49 0 0 4.49 0 10C0 15.51 4.49 20 10 20C15.51 20 20 15.51 20 10C20 4.49 15.51 0 10 0ZM9 8V5C9 4.45 9.45 4 10 4C10.55 4 11 4.45 11 5V8H12.79C13.24 8 13.46 8.54 13.14 8.85L10.35 11.64C10.15 11.84 9.84 11.84 9.64 11.64L6.85 8.85C6.7809 8.7795 6.73421 8.69013 6.71582 8.59314C6.69743 8.49616 6.70816 8.39589 6.74665 8.30499C6.78515 8.2141 6.8497 8.13663 6.93215 8.08235C7.01461 8.02807 7.11129 7.99942 7.21 8H9V8ZM14 15H6C5.45 15 5 14.55 5 14C5 13.45 5.45 13 6 13H14C14.55 13 15 13.45 15 14C15 14.55 14.55 15 14 15Z" fill="black"/>
</svg>
