<svg width="54" height="36" viewBox="0 0 54 36" fill="none" xmlns="http://www.w3.org/2000/svg">
<path d="M2.76316 34.7859C2.53224 34.9486 2.26105 35.0447 1.9792 35.0638C1.69735 35.0829 1.41568 35.0241 1.16495 34.894C0.914218 34.7638 0.704064 34.5673 0.557436 34.3258C0.410807 34.0844 0.333341 33.8073 0.333496 33.5248V2.47562C0.333341 2.19313 0.410807 1.91602 0.557436 1.67457C0.704064 1.43311 0.914218 1.23658 1.16495 1.10644C1.41568 0.976301 1.69735 0.917557 1.9792 0.93662C2.26105 0.955684 2.53224 1.05182 2.76316 1.21454L24.7566 16.7422C24.9577 16.8846 25.1217 17.0732 25.2348 17.2921C25.348 17.511 25.4071 17.7538 25.4071 18.0002C25.4071 18.2466 25.348 18.4894 25.2348 18.7083C25.1217 18.9272 24.9577 19.1158 24.7566 19.2582L2.76316 34.7859V34.7859ZM28.0835 2.47562C28.0833 2.19313 28.1608 1.91602 28.3074 1.67457C28.4541 1.43311 28.6642 1.23658 28.915 1.10644C29.1657 0.976301 29.4474 0.917557 29.7292 0.93662C30.011 0.955684 30.2822 1.05182 30.5132 1.21454L52.5066 16.7422C52.7077 16.8846 52.8717 17.0732 52.9848 17.2921C53.098 17.511 53.1571 17.7538 53.1571 18.0002C53.1571 18.2466 53.098 18.4894 52.9848 18.7083C52.8717 18.9272 52.7077 19.1158 52.5066 19.2582L30.5132 34.7859C30.2822 34.9486 30.011 35.0447 29.7292 35.0638C29.4474 35.0829 29.1657 35.0241 28.915 34.894C28.6642 34.7638 28.4541 34.5673 28.3074 34.3258C28.1608 34.0844 28.0833 33.8073 28.0835 33.5248V2.47562Z" fill="#00AEEF"/>
</svg>
